<?xml version="1.0" encoding="UTF-8"?>
<svg width="300px" height="59px" viewBox="0 0 300 59" version="1.1" xmlns="http://www.w3.org/2000/svg" xmlns:xlink="http://www.w3.org/1999/xlink">
    <title>wave</title>
    <g id="Page-1" stroke="none" stroke-width="1" fill="none" fill-rule="evenodd">
        <g id="Group" transform="translate(0.000000, -19.000000)" fill="#70B343" fill-rule="nonzero">
            <g id="wave" transform="translate(0.000000, 19.000000)">
                <path d="M4.83870968,36.7741935 C17.4193548,46.4516129 30.9677419,58.0645161 58.0645161,58.0645161 C85.1612903,58.0645161 98.7096774,46.4516129 111.290323,36.7741935 C121.935484,27.0967742 131.612903,19.3548387 151.935484,19.3548387 C172.258065,19.3548387 180.967742,27.0967742 192.580645,36.7741935 C205.16129,46.4516129 218.709677,58.0645161 245.806452,58.0645161 C272.903226,58.0645161 286.451613,46.4516129 299.032258,36.7741935 L285.483871,28.0645161 C274.83871,37.7419355 265.16129,45.483871 244.83871,45.483871 C224.516129,45.483871 215.806452,37.7419355 204.193548,28.0645161 C192.580645,18.3870968 178.064516,6.77419355 151.935484,6.77419355 C124.83871,6.77419355 111.290323,18.3870968 98.7096774,28.0645161 C87.0967742,37.7419355 78.3870968,45.483871 58.0645161,45.483871 C37.7419355,45.483871 29.0322581,37.7419355 17.4193548,28.0645161 L4.83870968,36.7741935 Z" id="Path"></path>
            </g>
        </g>
    </g>
</svg>